<?xml version="1.0" encoding="UTF-8" standalone="no"?>
<!DOCTYPE svg PUBLIC "-//W3C//DTD SVG 1.1//EN" "http://www.w3.org/Graphics/SVG/1.1/DTD/svg11.dtd">
<svg version="1.1" xmlns="http://www.w3.org/2000/svg" xmlns:xlink="http://www.w3.org/1999/xlink" preserveAspectRatio="xMidYMid meet" viewBox="0 0 396 379.93" width="100" height="95.94"><defs><path d="M0 0L396 0L396 379.93L0 379.93L0 0Z" id="adQgeqQWz"></path><path d="M366.96 90.3C350.58 67.75 310.84 71.86 278.19 99.48C245.27 127.34 240.54 171.12 243.54 179.81C246.22 188.61 275.77 221.24 318.79 224.43C361.44 227.59 396 207.56 396 179.69C396 164.25 385.38 149.64 368.66 139.15C376.02 120.85 376.02 102.79 366.96 90.3Z" id="b38UxzmJWd"></path><path d="M226.14 233.34C218.61 238.61 196.7 276.8 206.96 318.7C217.14 360.24 246.87 386.92 273.37 378.3C288.06 373.53 298.66 358.92 303.47 339.78C323.16 341.12 340.34 335.54 349.41 323.06C365.8 300.51 349.61 263.99 313.25 241.48C276.58 218.77 233.48 227.8 226.14 233.34Z" id="dN7k3DHqs"></path><path d="M82.75 241.48C46.39 263.99 30.2 300.52 46.59 323.06C55.66 335.55 72.84 341.12 92.52 339.78C97.34 358.92 107.95 373.53 122.63 378.31C149.13 386.92 178.86 360.24 189.04 318.7C199.3 276.81 177.39 238.61 169.86 233.35C162.52 227.81 119.42 218.78 82.75 241.48Z" id="aGFxb07cy"></path><path d="M152.46 179.81C155.46 171.12 150.73 127.34 117.81 99.48C85.16 71.86 45.42 67.75 29.04 90.3C19.97 102.79 19.98 120.84 27.34 139.15C10.62 149.64 0 164.25 0 179.69C0 207.56 34.56 227.59 77.21 224.43C120.23 221.24 149.78 188.6 152.46 179.81Z" id="e2XRxvZLGL"></path><path d="M263.69 88.94C279.87 49.36 271.5 10.29 245 1.69C230.31 -3.08 213.14 2.5 198 15.16C182.86 2.51 165.69 -3.08 151.01 1.69C124.5 10.29 116.13 49.36 132.31 88.94C148.63 128.87 188.81 146.89 198 146.72C207.19 146.89 247.36 128.87 263.69 88.94Z" id="a1ZbzJpzTv"></path><path d="M198 154.97C178.67 154.97 163.01 170.63 163.01 189.96C163.01 209.29 178.67 224.95 198 224.95C217.33 224.95 232.99 209.29 232.99 189.96C232.99 170.63 217.33 154.97 198 154.97Z" id="b4Tu2dAmQG"></path></defs><g><g><g><use xlink:href="#adQgeqQWz" opacity="0" fill="#a95fb9" fill-opacity="1"></use></g><g><use xlink:href="#b38UxzmJWd" opacity="1" fill="#000000" fill-opacity="1"></use><g><use xlink:href="#b38UxzmJWd" opacity="1" fill-opacity="0" stroke="#000000" stroke-width="1" stroke-opacity="0"></use></g></g><g><use xlink:href="#dN7k3DHqs" opacity="1" fill="#000000" fill-opacity="1"></use><g><use xlink:href="#dN7k3DHqs" opacity="1" fill-opacity="0" stroke="#000000" stroke-width="1" stroke-opacity="0"></use></g></g><g><use xlink:href="#aGFxb07cy" opacity="1" fill="#000000" fill-opacity="1"></use><g><use xlink:href="#aGFxb07cy" opacity="1" fill-opacity="0" stroke="#000000" stroke-width="1" stroke-opacity="0"></use></g></g><g><use xlink:href="#e2XRxvZLGL" opacity="1" fill="#000000" fill-opacity="1"></use><g><use xlink:href="#e2XRxvZLGL" opacity="1" fill-opacity="0" stroke="#000000" stroke-width="1" stroke-opacity="0"></use></g></g><g><use xlink:href="#a1ZbzJpzTv" opacity="1" fill="#000000" fill-opacity="1"></use><g><use xlink:href="#a1ZbzJpzTv" opacity="1" fill-opacity="0" stroke="#000000" stroke-width="1" stroke-opacity="0"></use></g></g><g><use xlink:href="#b4Tu2dAmQG" opacity="1" fill="#000000" fill-opacity="1"></use><g><use xlink:href="#b4Tu2dAmQG" opacity="1" fill-opacity="0" stroke="#000000" stroke-width="1" stroke-opacity="0"></use></g></g></g></g></svg>
